<svg height='30px' width='30px'  fill="#000000" xmlns="http://www.w3.org/2000/svg" data-name="Layer 1" viewBox="0 0 100 100" x="0px" y="0px"><title>9</title><path d="M26.95435,43.45112c-3.30994-11.36374,1.53-20.94157,9.20007-22.7874a11.88746,11.88746,0,0,1,9.26,1.90563,8.56851,8.56851,0,0,0,2.791,1.1875,22.926,22.926,0,0,0-3.12878-9.12057A8.24114,8.24114,0,0,0,43.834,13.24186a1.9891,1.9891,0,1,1,2.70264-2.91921,8.53216,8.53216,0,0,1,1.592,1.97906,32.63746,32.63746,0,0,1,3.78577,11.52474,8.68793,8.68793,0,0,0,3.1-1.2571,11.88746,11.88746,0,0,1,9.26-1.90563,11.61481,11.61481,0,0,1,4.41993,2.14507A9.46306,9.46306,0,0,0,72.6145,40.897a9.10819,9.10819,0,0,0,1.49-.11971c-.16015.878-.37011,1.76593-.63012,2.67387-3.09,10.61534-10.8899,17.97844-18.54993,16.1426a10.87346,10.87346,0,0,1-2.4-.89783,4.91865,4.91865,0,0,0-4.62,0,10.87121,10.87121,0,0,1-2.4.89783C37.84448,61.42956,30.04443,54.06646,26.95435,43.45112Zm33.07031-26.8809c6.89575-2.55159,8.99487-11.1271,8.99487-11.1271S59.65125,3.20063,53.70508,8.805c-2.87647,2.70955-2.84168,7.7298-2.84168,7.7298A14.3545,14.3545,0,0,0,60.02466,16.57022ZM5,79.528A15.49529,15.49529,0,0,1,20.50879,64.04522H92.5a2.49336,2.49336,0,0,1,1.35254,4.59192c-3.17285,2.03728-5.22363,6.31206-5.22363,10.89083,0,4.64258,2.00195,8.81165,5.22363,10.88011A2.49336,2.49336,0,0,1,92.5,95H20.50879A15.50772,15.50772,0,0,1,5,79.528Zm5,0A10.50792,10.50792,0,0,0,20.50879,90.01154H86.6123a18.98478,18.98478,0,0,1-2.82275-7.98934H19.5a2.49424,2.49424,0,1,1,0-4.98847H83.78918a19.0014,19.0014,0,0,1,2.8241-8.00005H20.50879A10.49976,10.49976,0,0,0,10,79.528Z"></path></svg>